<svg width="73" height="73" viewBox="0 0 73 73" fill="none" xmlns="http://www.w3.org/2000/svg">
<path d="M17.125 55.875V28.75M71.375 21V52C71.375 57.1386 69.3337 62.0667 65.7002 65.7002C62.0667 69.3337 57.1386 71.375 52 71.375H21C15.8614 71.375 10.9333 69.3337 7.29981 65.7002C3.66629 62.0667 1.625 57.1386 1.625 52V21C1.625 15.8614 3.66629 10.9333 7.29981 7.29981C10.9333 3.66629 15.8614 1.625 21 1.625H52C57.1386 1.625 62.0667 3.66629 65.7002 7.29981C69.3337 10.9333 71.375 15.8614 71.375 21Z" stroke="black" stroke-width="1.5" stroke-linecap="round" stroke-linejoin="round"/>
<path d="M32.625 55.875V43.2813M32.625 43.2813V28.75M32.625 43.2813C32.625 28.75 55.875 28.75 55.875 43.2813V55.875M17.125 17.1637L17.1638 17.1211" stroke="black" stroke-width="1.5" stroke-linecap="round" stroke-linejoin="round"/>
</svg>
