<svg width="94" height="94" viewBox="0 0 94 94" fill="none" xmlns="http://www.w3.org/2000/svg">
<path d="M47 62.6667C51.1552 62.6667 55.14 61.0162 58.0779 58.0779C61.0162 55.14 62.6667 51.1552 62.6667 47C62.6667 42.8448 61.0162 38.8601 58.0779 35.922C55.14 32.9839 51.1552 31.3333 47 31.3333C42.8448 31.3333 38.8601 32.9839 35.922 35.922C32.984 38.8601 31.3334 42.8448 31.3334 47C31.3334 51.1552 32.984 55.14 35.922 58.0779C38.8601 61.0162 42.8448 62.6667 47 62.6667Z" stroke="black" stroke-width="1.5" stroke-linecap="round" stroke-linejoin="round"/>
<path d="M11.75 62.6667V31.3333C11.75 26.1395 13.8132 21.1584 17.4858 17.4858C21.1584 13.8132 26.1395 11.75 31.3333 11.75H62.6667C67.8606 11.75 72.8418 13.8132 76.514 17.4858C80.1867 21.1584 82.25 26.1395 82.25 31.3333V62.6667C82.25 67.8606 80.1867 72.8418 76.514 76.514C72.8418 80.1867 67.8606 82.25 62.6667 82.25H31.3333C26.1395 82.25 21.1584 80.1867 17.4858 76.514C13.8132 72.8418 11.75 67.8606 11.75 62.6667Z" stroke="black" stroke-width="1.5"/>
<path d="M68.5416 25.497L68.5804 25.4544" stroke="black" stroke-width="1.5" stroke-linecap="round" stroke-linejoin="round"/>
</svg>
